<?xml version="1.0" encoding="utf-8"?>
<svg viewBox="13.606 18.141 500 500" xmlns="http://www.w3.org/2000/svg" xmlns:bx="https://boxy-svg.com">
  <g transform="matrix(1.006686, 0, 0, 1.004419, -12.586969, -19.491577)">
    <path d="M 26.019 37.467 L 522.698 37.467 L 522.698 535.267 L 26.019 535.267 L 26.019 37.467 Z" stroke-width="2" stroke="#000" style="fill: rgb(255, 255, 255);"/>
    <path stroke-width="1.8" d="M 47.793 53.713 L 346.603 53.713 L 346.603 150.746 L 47.793 150.746 L 47.793 53.713 Z" stroke="#000" style="fill: rgb(255, 255, 255);"/>
    <path d="M 435.336 88.726 C 435.336 76.386 445.611 66.376 458.275 66.376 C 464.363 66.376 470.201 68.735 474.491 72.922 C 478.774 77.066 481.197 82.767 481.214 88.726 C 481.214 101.08 470.953 111.09 458.275 111.09 C 445.611 111.09 435.336 101.065 435.336 88.726 Z" stroke="#000" stroke-width="2" style="fill: rgb(255, 255, 255);"/>
    <path stroke="#000" stroke-width="1.8" d="M 47.793 158.692 L 346.603 158.692 L 346.603 255.725 L 47.793 255.725 L 47.793 158.692 Z M 47.793 263.686 L 346.603 263.686 L 346.603 360.719 L 47.793 360.719 L 47.793 263.686 Z" style="fill: rgb(255, 255, 255);"/>
    <path d="M 58.57 407.393 C 58.57 397.398 66.884 389.289 77.145 389.289 C 82.069 389.289 86.801 391.206 90.28 394.597 C 93.774 397.987 95.735 402.587 95.735 407.393 C 95.735 417.403 87.406 425.496 77.16 425.496 C 66.884 425.496 58.57 417.388 58.57 407.393 Z M 107.868 407.393 C 107.868 397.398 116.182 389.289 126.443 389.289 C 131.381 389.289 136.099 391.206 139.593 394.597 C 143.072 397.987 145.033 402.587 145.033 407.393 C 145.033 417.403 136.718 425.496 126.458 425.496 C 116.182 425.496 107.882 417.388 107.882 407.393 L 107.868 407.393 Z M 157.18 407.393 C 157.18 397.398 165.495 389.289 175.755 389.289 C 180.679 389.289 185.412 391.206 188.891 394.597 C 192.37 397.987 194.345 402.587 194.345 407.393 C 194.345 417.403 186.016 425.496 175.755 425.496 C 165.495 425.496 157.18 417.388 157.18 407.393 Z M 206.478 407.393 C 206.478 397.398 214.793 389.289 225.053 389.289 C 229.977 389.289 234.709 391.206 238.189 394.597 C 241.683 397.987 243.643 402.587 243.643 407.393 C 243.643 417.403 235.314 425.496 225.068 425.496 C 214.793 425.496 206.478 417.388 206.478 407.393 Z M 255.776 407.393 C 255.776 397.398 264.091 389.289 274.351 389.289 C 279.29 389.289 284.007 391.206 287.501 394.597 C 290.98 397.987 292.941 402.587 292.941 407.393 C 292.941 417.403 284.627 425.496 274.366 425.496 C 264.091 425.496 255.791 417.388 255.791 407.393 L 255.776 407.393 Z M 305.089 407.393 C 305.089 397.398 313.403 389.289 323.664 389.289 C 328.588 389.289 333.32 391.206 336.799 394.597 C 340.278 397.987 342.254 402.587 342.254 407.393 C 342.254 417.403 333.924 425.496 323.664 425.496 C 313.403 425.496 305.089 417.388 305.089 407.393 Z M 354.387 407.393 C 354.387 397.398 362.701 389.289 372.962 389.289 C 377.886 389.289 382.618 391.206 386.097 394.597 C 389.591 397.987 391.552 402.587 391.552 407.393 C 391.552 417.403 383.222 425.496 372.976 425.496 C 362.701 425.496 354.387 417.388 354.387 407.393 Z M 403.684 407.393 C 403.684 397.398 411.999 389.289 422.26 389.289 C 427.198 389.289 431.916 391.206 435.41 394.597 C 438.889 397.987 440.85 402.587 440.85 407.393 C 440.85 417.403 432.535 425.496 422.274 425.496 C 411.999 425.496 403.699 417.388 403.699 407.393 L 403.684 407.393 Z M 452.982 407.393 C 452.982 397.398 461.312 389.289 471.558 389.289 C 476.496 389.289 481.228 391.206 484.708 394.597 C 488.187 397.987 490.162 402.587 490.162 407.393 C 490.162 417.403 481.833 425.496 471.572 425.496 C 461.312 425.496 452.997 417.388 452.997 407.393 L 452.982 407.393 Z M 58.57 493.06 C 58.57 483.064 66.884 474.956 77.145 474.956 C 82.069 474.956 86.801 476.873 90.28 480.263 C 93.774 483.654 95.735 488.254 95.735 493.06 C 95.735 503.07 87.406 511.178 77.16 511.178 C 66.884 511.178 58.57 503.07 58.57 493.06 Z M 107.868 493.06 C 107.868 483.064 116.182 474.956 126.443 474.956 C 131.381 474.956 136.099 476.873 139.593 480.263 C 143.072 483.654 145.033 488.254 145.033 493.06 C 145.033 503.07 136.718 511.178 126.458 511.178 C 116.182 511.178 107.882 503.07 107.882 493.06 L 107.868 493.06 Z M 157.18 493.06 C 157.18 483.064 165.495 474.956 175.755 474.956 C 180.679 474.956 185.412 476.873 188.891 480.263 C 192.37 483.654 194.345 488.254 194.345 493.06 C 194.345 503.07 186.016 511.178 175.755 511.178 C 165.495 511.178 157.18 503.07 157.18 493.06 Z M 206.478 493.06 C 206.478 483.064 214.793 474.956 225.053 474.956 C 229.977 474.956 234.709 476.873 238.189 480.263 C 241.683 483.654 243.643 488.254 243.643 493.06 C 243.643 503.07 235.314 511.178 225.068 511.178 C 214.793 511.178 206.478 503.07 206.478 493.06 Z M 255.776 493.06 C 255.776 483.064 264.091 474.956 274.351 474.956 C 279.29 474.956 284.007 476.873 287.501 480.263 C 290.98 483.654 292.941 488.254 292.941 493.06 C 292.941 503.07 284.627 511.178 274.366 511.178 C 264.091 511.178 255.791 503.07 255.791 493.06 L 255.776 493.06 Z M 305.089 493.06 C 305.089 483.064 313.403 474.956 323.664 474.956 C 328.588 474.956 333.32 476.873 336.799 480.263 C 340.278 483.654 342.254 488.254 342.254 493.06 C 342.254 503.07 333.924 511.178 323.664 511.178 C 313.403 511.178 305.089 503.07 305.089 493.06 Z M 354.387 493.06 C 354.387 483.064 362.701 474.956 372.962 474.956 C 377.886 474.956 382.618 476.873 386.097 480.263 C 389.591 483.654 391.552 488.254 391.552 493.06 C 391.552 503.07 383.222 511.178 372.976 511.178 C 362.701 511.178 354.387 503.07 354.387 493.06 Z M 403.684 493.06 C 403.684 483.064 411.999 474.956 422.26 474.956 C 427.198 474.956 431.916 476.873 435.41 480.263 C 438.889 483.654 440.85 488.254 440.85 493.06 C 440.85 503.07 432.535 511.178 422.274 511.178 C 411.999 511.178 403.699 503.07 403.699 493.06 L 403.684 493.06 Z M 452.982 493.06 C 452.982 483.064 461.312 474.956 471.558 474.956 C 476.496 474.956 481.228 476.873 484.708 480.263 C 488.187 483.654 490.162 488.254 490.162 493.06 C 490.162 503.07 481.833 511.178 471.572 511.178 C 461.312 511.178 452.997 503.07 452.997 493.06 L 452.982 493.06 Z M 83.219 450.234 C 83.219 440.224 91.533 432.115 101.794 432.115 C 106.733 432.115 111.45 434.032 114.929 437.423 C 118.423 440.813 120.384 445.428 120.384 450.234 C 120.384 460.229 112.054 468.337 101.809 468.337 C 91.533 468.337 83.219 460.229 83.219 450.234 Z M 132.517 450.234 C 132.517 440.224 140.846 432.115 151.092 432.115 C 156.03 432.115 160.763 434.032 164.242 437.423 C 167.721 440.813 169.682 445.428 169.682 450.234 C 169.682 460.229 161.367 468.337 151.107 468.337 C 140.846 468.337 132.531 460.229 132.531 450.234 L 132.517 450.234 Z M 181.829 450.234 C 181.829 440.224 190.144 432.115 200.404 432.115 C 205.328 432.115 210.061 434.032 213.54 437.423 C 217.034 440.813 218.994 445.428 218.994 450.234 C 218.994 460.229 210.665 468.337 200.404 468.337 C 190.144 468.337 181.829 460.229 181.829 450.234 Z M 231.127 450.234 C 231.127 440.224 239.442 432.115 249.702 432.115 C 254.641 432.115 259.358 434.032 262.852 437.423 C 266.331 440.813 268.292 445.428 268.292 450.234 C 268.292 460.229 259.963 468.337 249.717 468.337 C 239.442 468.337 231.142 460.229 231.142 450.234 L 231.127 450.234 Z M 280.425 450.234 C 280.425 440.224 288.754 432.115 299 432.115 C 303.939 432.115 308.671 434.032 312.15 437.423 C 315.629 440.813 317.59 445.428 317.59 450.234 C 317.59 460.229 309.275 468.337 299.015 468.337 C 288.754 468.337 280.44 460.229 280.44 450.234 L 280.425 450.234 Z M 329.738 450.234 C 329.738 440.224 338.052 432.115 348.313 432.115 C 353.237 432.115 357.969 434.032 361.448 437.423 C 364.942 440.813 366.903 445.428 366.903 450.234 C 366.903 460.229 358.573 468.337 348.313 468.337 C 338.052 468.337 329.738 460.229 329.738 450.234 Z M 379.036 450.234 C 379.036 440.224 387.35 432.115 397.611 432.115 C 402.549 432.115 407.267 434.032 410.761 437.423 C 414.24 440.813 416.201 445.428 416.201 450.234 C 416.201 460.229 407.871 468.337 397.625 468.337 C 387.35 468.337 379.05 460.229 379.05 450.234 L 379.036 450.234 Z M 428.333 450.234 C 428.333 440.224 436.663 432.115 446.909 432.115 C 451.847 432.115 456.579 434.032 460.059 437.423 C 463.538 440.813 465.513 445.428 465.513 450.234 C 465.513 460.229 457.184 468.337 446.923 468.337 C 436.663 468.337 428.348 460.229 428.348 450.234 L 428.333 450.234 Z" stroke="#000" stroke-width="1.62" style="fill: rgb(255, 255, 255);"/>
    <path stroke="#000" stroke-width="1.65" d="M 370.382 232.3 L 429.631 232.3 L 429.631 291.136 L 370.382 291.136 L 370.382 232.3 Z M 439.655 232.3 L 498.904 232.3 L 498.904 291.136 L 439.655 291.136 L 439.655 232.3 Z" style="fill: rgb(255, 255, 255);"/>
    <path stroke="#000" stroke-width="1.69" d="M 370.411 300.998 L 498.89 300.998 L 498.89 369.933 L 370.411 369.933 L 370.411 300.998 Z" style="fill: rgb(255, 255, 255);"/>
    <path d="M 417.719 279.372 L 382.279 263.627 L 382.279 259.809 L 417.719 244.064 L 417.719 249.592 L 389.783 261.725 L 417.719 273.843 L 417.719 279.372 Z" font-size="42.67" aria-label="&lt;" style="font-size:42.66666794px" font-weight="400" font-family="sans-serif" letter-spacing="0" word-spacing="0" fill="#000"/>
    <path d="M 487.007 263.627 L 451.567 279.372 L 451.567 273.843 L 479.518 261.725 L 451.567 249.592 L 451.567 244.064 L 487.007 259.809 L 487.007 263.627 Z" font-size="42.67" aria-label="&gt;" style="font-size:42.66666794px" font-weight="400" font-family="sans-serif" letter-spacing="0" word-spacing="0" fill="#000"/>
    <path d="M 410.553 343.987 C 410.553 345.559 410.185 347.102 409.447 348.616 C 408.73 350.139 407.718 351.432 406.411 352.493 C 404.976 353.633 403.305 354.527 401.398 355.176 C 399.492 355.815 397.197 356.134 394.514 356.134 C 391.624 356.134 389.025 355.869 386.715 355.338 C 384.425 354.798 382.086 354.002 379.698 352.95 L 379.698 346.272 L 380.081 346.272 C 382.106 347.962 384.445 349.264 387.098 350.178 C 389.752 351.092 392.238 351.549 394.558 351.549 C 397.86 351.549 400.425 350.93 402.253 349.692 C 404.091 348.454 405.01 346.807 405.01 344.753 C 405.01 342.984 404.573 341.672 403.698 340.817 C 402.843 339.982 401.526 339.328 399.747 338.856 C 398.401 338.503 396.941 338.208 395.369 337.972 C 393.806 337.746 392.15 337.451 390.401 337.087 C 386.853 336.331 384.219 335.053 382.499 333.254 C 380.798 331.417 379.948 329.038 379.948 326.119 C 379.948 322.778 381.364 320.036 384.194 317.893 C 387.025 315.751 390.612 314.679 394.956 314.679 C 397.777 314.679 400.361 314.945 402.71 315.475 C 405.059 316.016 407.138 316.679 408.946 317.466 L 408.946 323.76 L 408.563 323.76 C 407.04 322.473 405.035 321.407 402.548 320.561 C 400.071 319.697 397.536 319.264 394.941 319.264 C 392.091 319.264 389.796 319.854 388.057 321.033 C 386.337 322.222 385.477 323.746 385.477 325.603 C 385.477 327.274 385.909 328.586 386.774 329.539 C 387.629 330.483 389.143 331.205 391.315 331.706 C 392.455 331.962 394.086 332.267 396.209 332.621 C 398.322 332.984 400.111 333.353 401.575 333.726 C 404.553 334.512 406.794 335.707 408.298 337.309 C 409.801 338.901 410.553 341.132 410.553 344.001 L 410.553 343.987 Z M 449.222 339.343 C 449.222 342.242 448.902 344.778 448.264 346.95 C 447.635 349.102 446.593 350.896 445.138 352.331 C 443.762 353.687 442.151 354.68 440.303 355.309 C 438.455 355.938 436.303 356.252 433.846 356.252 C 431.34 356.252 429.158 355.918 427.3 355.25 C 425.433 354.591 423.86 353.618 422.583 352.331 C 421.138 350.857 420.091 349.083 419.443 347.009 C 418.823 344.925 418.514 342.37 418.514 339.343 L 418.514 315.402 L 423.821 315.402 L 423.821 339.608 C 423.821 341.78 423.969 343.495 424.263 344.753 C 424.558 346.002 425.059 347.137 425.767 348.159 C 426.553 349.328 427.62 350.208 428.966 350.798 C 430.322 351.387 431.949 351.682 433.846 351.682 C 435.772 351.682 437.404 351.397 438.74 350.827 C 440.087 350.237 441.163 349.353 441.969 348.174 C 442.667 347.142 443.158 345.972 443.443 344.665 C 443.748 343.338 443.9 341.702 443.9 339.756 L 443.9 315.387 L 449.222 315.387 L 449.222 339.343 Z M 489.586 343.102 C 489.586 345.097 489.213 346.857 488.466 348.38 C 487.709 349.903 486.697 351.156 485.429 352.139 C 483.925 353.319 482.264 354.159 480.446 354.66 C 478.657 355.161 476.377 355.412 473.605 355.412 L 459.409 355.412 L 459.409 315.402 L 471.261 315.402 C 474.18 315.402 476.367 315.51 477.822 315.726 C 479.266 315.942 480.652 316.389 481.979 317.068 C 483.453 317.834 484.52 318.827 485.178 320.045 C 485.846 321.244 486.181 322.689 486.181 324.38 C 486.181 326.276 485.694 327.898 484.721 329.245 C 483.758 330.571 482.47 331.638 480.859 332.444 L 480.859 332.65 C 483.561 333.21 485.694 334.404 487.257 336.232 C 488.81 338.041 489.586 340.331 489.586 343.102 Z M 480.637 325.073 C 480.637 324.109 480.475 323.294 480.151 322.625 C 479.836 321.967 479.321 321.426 478.603 321.004 C 477.758 320.532 476.736 320.237 475.537 320.119 C 474.338 320.001 472.849 319.942 471.07 319.942 L 464.731 319.942 L 464.731 331.5 L 471.615 331.5 C 473.286 331.5 474.613 331.417 475.596 331.249 C 476.578 331.073 477.488 330.719 478.323 330.188 C 479.168 329.648 479.758 328.96 480.092 328.124 C 480.456 327.259 480.637 326.242 480.637 325.073 Z M 484.058 343.323 C 484.058 341.712 483.812 340.434 483.321 339.49 C 482.839 338.537 481.964 337.726 480.696 337.058 C 479.832 336.616 478.785 336.331 477.556 336.203 C 476.338 336.055 474.849 335.982 473.089 335.982 L 464.731 335.982 L 464.731 350.871 L 471.777 350.871 C 474.107 350.871 476.013 350.758 477.497 350.532 C 478.981 350.277 480.2 349.825 481.153 349.176 C 482.156 348.488 482.893 347.692 483.365 346.788 C 483.827 345.893 484.058 344.739 484.058 343.323 Z" style="line-height: 1.25;" font-weight="400" font-size="37.33" font-family="sans-serif" letter-spacing="0" word-spacing="0" fill="#000"/>
    <rect x="370.386" y="301.343" width="127.911" height="67.964" style="stroke: rgb(0, 0, 0); fill: rgb(255, 255, 255);"/>
    <rect x="377.418" y="305.657" width="114.557" height="59.249" style="stroke: rgb(0, 0, 0); fill: rgb(255, 255, 255);"/>
    <text style="fill: rgb(51, 51, 51); font-family: Arial, sans-serif; font-size: 16.4px; font-weight: 700; white-space: pre;" transform="matrix(0.725022, 0, 0, 1.185666, 172.809784, 32.497124)" x="299.296" y="251.891">TO THE TRAINS</text>
    <g>
      <path d="M 392.116 344.921 H 465.521 L 462.09 336.477 L 479.341 347.206 L 462.09 357.935 L 465.521 349.491 H 392.116 V 344.921 Z" style="stroke: rgb(0, 0, 0); fill: rgb(152, 114, 114); stroke-width: 0px;" bx:shape="arrow 392.116 336.477 87.225 21.458 4.57 17.251 3.431 1@728ba5b0"/>
      <path d="M 392.101 344.877 H 404.098 L 402.977 334.975 L 406.893 347.153 L 402.977 359.331 L 404.098 349.429 H 392.101 V 344.877 Z" style="stroke: rgb(0, 0, 0); stroke-width: 0px; fill: rgb(152, 114, 114);" bx:shape="arrow 392.101 334.975 14.792 24.356 4.552 3.916 1.121 1@b29271cc"/>
      <path d="M 392.101 344.961 H 398.754 L 397.633 335.059 L 401.549 347.237 L 397.633 359.415 L 398.754 349.513 H 392.101 V 344.961 Z" style="stroke: rgb(0, 0, 0); fill: rgb(152, 114, 114); stroke-width: 0px;" bx:shape="arrow 392.101 335.059 9.448 24.356 4.552 3.916 1.121 1@249fa6cd"/>
      <path d="M 392.067 344.878 H 393.768 L 392.647 334.976 L 396.563 347.154 L 392.647 359.332 L 393.768 349.43 H 392.067 V 344.878 Z" style="stroke-width: 0px; stroke: rgb(0, 0, 0); fill: rgb(152, 114, 114);" bx:shape="arrow 392.067 334.976 4.496 24.356 4.552 3.916 1.121 1@1ced0299"/>
      <path d="M 397.621 344.835 H 409.618 L 408.497 334.933 L 412.413 347.111 L 408.497 359.289 L 409.618 349.387 H 397.621 V 344.835 Z" style="stroke: rgb(0, 0, 0); stroke-width: 0px; fill: rgb(152, 114, 114);" bx:shape="arrow 397.621 334.933 14.792 24.356 4.552 3.916 1.121 1@0eef4332"/>
    </g>
  </g>
</svg>